<svg aria-hidden="true" style="position: absolute; width: 0; height: 0; overflow: hidden;" version="1.1" xmlns="http://www.w3.org/2000/svg" xmlns:xlink="http://www.w3.org/1999/xlink">
<defs>
<symbol id="icon-square" viewBox="0 0 31 32">
<path fill="#f2c938" style="fill: var(--color1, #f2c938)" opacity="0.4" d="M15.738 22.426v3.121c0 2.452-0.984 3.436-3.449 3.436h-6.229c-2.452 0-3.436-0.984-3.436-3.436v-6.23c0-2.466 0.984-3.449 3.436-3.449h3.121v3.108c0 2.466 0.984 3.449 3.436 3.449h3.121z"></path>
<path fill="#f2c938" style="fill: var(--color1, #f2c938)" opacity="0.6" d="M22.295 15.869v3.108c0 2.466-0.984 3.449-3.449 3.449h-6.229c-2.452 0-3.436-0.984-3.436-3.449v-6.229c0-2.452 0.984-3.436 3.436-3.436h3.121v3.108c0 2.466 0.984 3.449 3.436 3.449h3.121z"></path>
<path fill="#f2c938" style="fill: var(--color1, #f2c938)" d="M28.852 6.19v6.229c0 2.466-0.984 3.449-3.449 3.449h-6.23c-2.452 0-3.436-0.984-3.436-3.449v-6.229c0-2.452 0.984-3.436 3.436-3.436h6.23c2.466 0 3.449 0.984 3.449 3.436z"></path>
</symbol>
<symbol id="icon-arrow" viewBox="0 0 32 32">
<path fill="#f2c938" style="fill: var(--color1, #f2c938)" d="M0 16.274c0-0.873 0.535-1.594 1.229-1.709l0.193-0.015 25.001 0.001-9.032-10.9c-0.557-0.671-0.559-1.763-0.005-2.437 0.504-0.613 1.294-0.671 1.852-0.172l0.16 0.166 11.473 13.843c0.073 0.088 0.137 0.184 0.191 0.285l0.046 0.093c0.031 0.060 0.059 0.131 0.081 0.204l0.002 0.009c0.023 0.064 0.043 0.141 0.057 0.221l0.001 0.009c0.015 0.065 0.026 0.143 0.032 0.222l0 0.005c0.004 0.044 0.007 0.096 0.007 0.147 0 0.009-0 0.018-0 0.027l0-0.001v0.067c-0.001 0.033-0.003 0.068-0.006 0.101l0.006-0.168c-0 0.277-0.055 0.542-0.154 0.783l0.005-0.014c-0.040 0.099-0.084 0.183-0.134 0.262l0.004-0.006-0.013 0.020c-0.041 0.066-0.082 0.122-0.126 0.176l0.002-0.003-0.001 0.001-11.473 13.846c-0.557 0.671-1.458 0.668-2.012-0.005-0.503-0.614-0.548-1.571-0.133-2.245l0.138-0.192 9.028-10.899h-24.997c-0.786-0.001-1.422-0.774-1.422-1.725z"></path>
</symbol>
<symbol id="icon-corner" viewBox="0 0 30 32">
<path fill="none" stroke="#f2c938" style="stroke: var(--color1, #f2c938)" stroke-linejoin="miter" stroke-linecap="round" stroke-miterlimit="4" stroke-width="0.9143" d="M0.457 0.457h29.257v31.086"></path>
</symbol>
<symbol id="icon-eye" viewBox="0 0 32 32">
<path fill="none" stroke="#fff" style="stroke: var(--color2, #fff)" stroke-linejoin="round" stroke-linecap="round" stroke-miterlimit="4" stroke-width="1.4545" d="M20.773 16c0 2.639-2.133 4.773-4.773 4.773-0.001 0-0.003 0-0.004 0-2.634 0-4.769-2.135-4.769-4.769 0-0.001 0-0.003 0-0.004v0c0-2.64 2.133-4.774 4.773-4.774 2.64 0 4.773 2.133 4.773 4.774z"></path>
<path fill="none" stroke="#fff" style="stroke: var(--color2, #fff)" stroke-linejoin="round" stroke-linecap="round" stroke-miterlimit="4" stroke-width="1.4545" d="M16 27.026c4.707 0 9.094-2.773 12.146-7.573 1.2-1.88 1.2-5.040 0-6.92-3.053-4.8-7.439-7.573-12.146-7.573s-9.093 2.773-12.146 7.573c-1.2 1.88-1.2 5.040 0 6.92 3.054 4.8 7.439 7.573 12.146 7.573z"></path>
</symbol>
<symbol id="icon-fb" viewBox="0 0 18 32">
<path fill="#fff" style="fill: var(--color2, #fff)" d="M11.001 18.254h3.705l1.481-5.925h-5.186v-2.964c0-1.525 0-2.964 2.964-2.964h2.222v-4.978c-1.243-0.131-2.685-0.206-4.144-0.206-0.030 0-0.061 0-0.091 0h0.005c-4.023 0-6.88 2.453-6.88 6.962v4.149h-4.444v5.925h4.444v12.592h5.925v-12.592z"></path>
</symbol>
<symbol id="icon-map-location" viewBox="0 0 25 32">
<path fill="#fff" style="fill: var(--color2, #fff)" d="M12.325 0.533c-6.7 0.009-12.13 5.438-12.139 12.138v0.001c0 0.005 0 0.011 0 0.018 0 2.744 0.919 5.272 2.467 7.295l-0.021-0.029s0.331 0.436 0.385 0.499l9.309 10.98 9.315-10.985c0.048-0.059 0.38-0.493 0.38-0.493l0.001-0.003c1.526-1.993 2.445-4.522 2.445-7.265 0-0.006 0-0.012 0-0.018v0.001c-0.008-6.703-5.441-12.134-12.143-12.14h-0.001zM12.325 17.088c-2.439 0-4.415-1.977-4.415-4.415s1.977-4.415 4.415-4.415v0c2.439 0 4.415 1.977 4.415 4.415s-1.977 4.415-4.415 4.415v0z"></path>
</symbol>
<symbol id="icon-phone-call" viewBox="0 0 32 32">
<path d="M26.667 14.664h2.666c0-6.838-5.163-11.997-12.013-11.997v2.666c5.416 0 9.347 3.923 9.347 9.333z"></path>
<path  d="M17.333 10.667c2.805 0 4 1.197 4 4h2.667c0-4.299-2.367-6.667-6.667-6.667v2.667zM21.896 17.924c-0.236-0.215-0.551-0.346-0.897-0.346-0.375 0-0.715 0.155-0.957 0.404l-0 0-3.192 3.281c-0.768-0.146-2.311-0.627-3.901-2.212-1.589-1.592-2.070-3.14-2.212-3.903l3.278-3.192c0.249-0.243 0.404-0.582 0.404-0.957 0-0.346-0.132-0.662-0.348-0.899l0.001 0.001-4.925-5.418c-0.245-0.269-0.596-0.437-0.987-0.437-0.333 0-0.637 0.122-0.87 0.323l0.002-0.001-2.894 2.481c-0.222 0.224-0.366 0.526-0.385 0.862l-0 0.004c-0.021 0.334-0.402 8.23 5.721 14.355 5.341 5.34 12.032 5.729 13.874 5.729 0.27 0 0.435-0.007 0.479-0.010 0.339-0.020 0.642-0.165 0.864-0.389l0-0 2.481-2.894c0.2-0.232 0.321-0.536 0.321-0.868 0-0.391-0.168-0.742-0.436-0.986l-0.001-0.001-5.418-4.928z"></path>
</symbol>
<symbol id="icon-security" viewBox="0 0 31 32">
<path fill="#f2c938" style="fill: var(--color1, #f2c938)" opacity="0.4" d="M24.037 7.567l-15.397 15.397c-0.239 0.238-0.569 0.385-0.933 0.385-0.448 0-0.845-0.223-1.084-0.565l-0.003-0.004c-1.626-2.374-2.584-5.18-2.584-8.066v-5.757c0-1.075 0.813-2.295 1.81-2.702l7.305-2.99c0.76-0.323 1.643-0.511 2.57-0.511s1.811 0.188 2.615 0.528l-0.044-0.017 5.298 2.164c0.879 0.354 1.102 1.482 0.446 2.138z"></path>
<path fill="#f2c938" style="fill: var(--color1, #f2c938)" d="M25.272 9.367c0.852-0.721 2.151-0.105 2.151 1.010v4.341c0 6.413-4.656 12.42-11.016 14.177-0.203 0.056-0.435 0.089-0.675 0.089s-0.473-0.032-0.694-0.093l0.018 0.004c-1.945-0.556-3.638-1.433-5.108-2.582l0.033 0.025c-0.316-0.243-0.518-0.622-0.518-1.048 0-0.358 0.143-0.682 0.374-0.92l-0 0c2.859-2.925 11.226-11.449 15.436-15.003z"></path>
</symbol>
<symbol id="icon-star" viewBox="0 0 32 32">
<path fill="#f2c938" style="fill: var(--color1, #f2c938)" d="M15.172 1.86c0.096-0.286 0.362-0.489 0.676-0.489s0.579 0.203 0.674 0.484l0.001 0.005 3.182 9.788c0.096 0.287 0.362 0.49 0.676 0.491h10.29c0.001 0 0.002 0 0.003 0 0.393 0 0.711 0.318 0.711 0.711 0 0.236-0.115 0.445-0.292 0.575l-0.002 0.001-8.327 6.048c-0.179 0.131-0.294 0.34-0.294 0.576 0 0.079 0.013 0.154 0.036 0.225l-0.001-0.005 3.182 9.785c0.023 0.066 0.036 0.143 0.036 0.222 0 0.393-0.318 0.711-0.711 0.711-0.158 0-0.304-0.051-0.422-0.138l0.002 0.001-8.327-6.048c-0.116-0.085-0.261-0.136-0.418-0.136s-0.302 0.051-0.42 0.137l0.002-0.001-8.324 6.048c-0.116 0.086-0.262 0.137-0.42 0.137-0.393 0-0.711-0.318-0.711-0.711 0-0.080 0.013-0.156 0.037-0.227l-0.001 0.005 3.179-9.785c0.023-0.066 0.036-0.143 0.036-0.222 0-0.235-0.114-0.443-0.29-0.573l-0.002-0.001-8.327-6.048c-0.179-0.131-0.294-0.34-0.294-0.576 0-0.393 0.318-0.711 0.711-0.711 0.001 0 0.002 0 0.003 0h10.29c0.314-0 0.58-0.204 0.674-0.486l0.001-0.005 3.182-9.788z"></path>
</symbol>
<symbol id="icon-star-beetwen" viewBox="0 0 31 32">
<path fill="#f2c938" style="fill: var(--color1, #f2c938)" opacity="0.4" d="M7.528 21.115c0.144-0.643-0.118-1.561-0.577-2.020l-3.187-3.187c-0.997-0.997-1.39-2.059-1.102-2.977 0.302-0.918 1.233-1.548 2.623-1.784l4.092-0.682c0.59-0.105 1.311-0.63 1.587-1.167l2.256-4.525c0.656-1.298 1.548-2.020 2.518-2.020s1.862 0.721 2.518 2.020l2.256 4.525c0.171 0.341 0.525 0.669 0.905 0.892l-14.125 14.125c-0.184 0.184-0.498 0.013-0.446-0.249l0.682-2.951z"></path>
<path fill="#f2c938" style="fill: var(--color1, #f2c938)" d="M24.525 19.098c-0.472 0.472-0.734 1.377-0.577 2.020l0.905 3.948c0.38 1.639 0.144 2.872-0.669 3.462-0.314 0.222-0.705 0.355-1.127 0.355-0.019 0-0.037-0-0.056-0.001l0.003 0c-0.669 0-1.456-0.249-2.321-0.761l-3.843-2.282c-0.603-0.354-1.6-0.354-2.203 0l-3.843 2.282c-1.456 0.852-2.702 0.997-3.502 0.407-0.302-0.223-0.525-0.525-0.669-0.918l15.948-15.948c0.603-0.603 1.456-0.879 2.282-0.734l1.325 0.223c1.39 0.236 2.321 0.866 2.623 1.784 0.289 0.918-0.105 1.98-1.102 2.977l-3.174 3.187z"></path>
</symbol>
<symbol id="icon-tickcircle" viewBox="0 0 32 32">
<path fill="none" stroke="#f2c938" style="stroke: var(--color1, #f2c938)" stroke-linejoin="round" stroke-linecap="round" stroke-miterlimit="4" stroke-width="2.8858" d="M15.484 29.201c7.055 0 12.825-5.772 12.825-12.825 0-7.055-5.77-12.826-12.825-12.826s-12.825 5.773-12.825 12.828 5.772 12.825 12.825 12.825z"></path>
<path fill="none" stroke="#f2c938" style="stroke: var(--color1, #f2c938)" stroke-linejoin="round" stroke-linecap="round" stroke-miterlimit="4" stroke-width="2.8858" d="M10.033 16.375l3.629 3.631 7.273-7.258"></path>
</symbol>
</defs>
</svg>
