<svg aria-hidden="true" style="position: absolute; width: 0; height: 0; overflow: hidden;" version="1.1" xmlns="http://www.w3.org/2000/svg" xmlns:xlink="http://www.w3.org/1999/xlink">
<defs>
<symbol id="icon-arrow" viewBox="0 0 32 32">
<path fill="#f2c938" style="fill: var(--color1, #f2c938)" d="M0 16.274c0-0.873 0.535-1.594 1.229-1.709l0.193-0.015 25.001 0.001-9.032-10.9c-0.557-0.671-0.559-1.763-0.005-2.437 0.504-0.613 1.294-0.671 1.852-0.172l0.16 0.166 11.473 13.843c0.073 0.088 0.137 0.184 0.191 0.285l0.046 0.093c0.031 0.060 0.059 0.131 0.081 0.204l0.002 0.009c0.023 0.064 0.043 0.141 0.057 0.221l0.001 0.009c0.015 0.065 0.026 0.143 0.032 0.222l0 0.005c0.004 0.044 0.007 0.096 0.007 0.147 0 0.009-0 0.018-0 0.027l0-0.001v0.067c-0.001 0.033-0.003 0.068-0.006 0.101l0.006-0.168c-0 0.277-0.055 0.542-0.154 0.783l0.005-0.014c-0.040 0.099-0.084 0.183-0.134 0.262l0.004-0.006-0.013 0.020c-0.041 0.066-0.082 0.122-0.126 0.176l0.002-0.003-0.001 0.001-11.473 13.846c-0.557 0.671-1.458 0.668-2.012-0.005-0.503-0.614-0.548-1.571-0.133-2.245l0.138-0.192 9.028-10.899h-24.997c-0.786-0.001-1.422-0.774-1.422-1.725z"></path>
</symbol>
<symbol id="icon-bxs_phone-call" viewBox="0 0 32 32">
<path fill="#f2c938" style="fill: var(--color1, #f2c938)" d="M26.667 14.664h2.666c0-6.838-5.163-11.997-12.013-11.997v2.666c5.416 0 9.347 3.923 9.347 9.333z"></path>
<path fill="#f2c938" style="fill: var(--color1, #f2c938)" d="M17.333 10.667c2.805 0 4 1.197 4 4h2.667c0-4.299-2.367-6.667-6.667-6.667v2.667zM21.896 17.924c-0.236-0.215-0.551-0.346-0.897-0.346-0.375 0-0.715 0.155-0.957 0.404l-0 0-3.192 3.281c-0.768-0.146-2.311-0.627-3.901-2.212-1.589-1.592-2.070-3.14-2.212-3.903l3.278-3.192c0.249-0.243 0.404-0.582 0.404-0.957 0-0.346-0.132-0.662-0.348-0.899l0.001 0.001-4.925-5.418c-0.245-0.269-0.596-0.437-0.987-0.437-0.333 0-0.637 0.122-0.87 0.323l0.002-0.001-2.894 2.481c-0.222 0.224-0.366 0.526-0.385 0.862l-0 0.004c-0.021 0.334-0.402 8.23 5.721 14.355 5.341 5.34 12.032 5.729 13.874 5.729 0.27 0 0.435-0.007 0.479-0.010 0.339-0.020 0.642-0.165 0.864-0.389l0-0 2.481-2.894c0.2-0.232 0.321-0.536 0.321-0.868 0-0.391-0.168-0.742-0.436-0.986l-0.001-0.001-5.418-4.928z"></path>
</symbol>
<symbol id="icon-eye" viewBox="0 0 32 32">
<path fill="none" stroke="#fff" style="stroke: var(--color2, #fff)" stroke-linejoin="round" stroke-linecap="round" stroke-miterlimit="4" stroke-width="1.4545" d="M20.773 16c0 2.639-2.133 4.773-4.773 4.773-0.001 0-0.003 0-0.004 0-2.634 0-4.769-2.135-4.769-4.769 0-0.001 0-0.003 0-0.004v0c0-2.64 2.133-4.774 4.773-4.774 2.64 0 4.773 2.133 4.773 4.774z"></path>
<path fill="none" stroke="#fff" style="stroke: var(--color2, #fff)" stroke-linejoin="round" stroke-linecap="round" stroke-miterlimit="4" stroke-width="1.4545" d="M16 27.026c4.707 0 9.094-2.773 12.146-7.573 1.2-1.88 1.2-5.040 0-6.92-3.053-4.8-7.439-7.573-12.146-7.573s-9.093 2.773-12.146 7.573c-1.2 1.88-1.2 5.040 0 6.92 3.054 4.8 7.439 7.573 12.146 7.573z"></path>
</symbol>
<symbol id="icon-facebook" viewBox="0 0 32 32">
<path fill="#fff" style="fill: var(--color2, #fff)" d="M18.455 17.17h3.176l1.269-5.079h-4.445v-2.54c0-1.307 0-2.54 2.54-2.54h1.905v-4.267c-1.065-0.113-2.301-0.177-3.552-0.177-0.026 0-0.052 0-0.079 0h0.004c-3.448 0-5.897 2.103-5.897 5.967v3.557h-3.81v5.079h3.81v10.793h5.079v-10.793z"></path>
</symbol>
<symbol id="icon-i3square" viewBox="0 0 31 32">
<path fill="#f2c938" style="fill: var(--color1, #f2c938)" opacity="0.4" d="M15.738 22.426v3.121c0 2.452-0.984 3.436-3.449 3.436h-6.229c-2.452 0-3.436-0.984-3.436-3.436v-6.23c0-2.466 0.984-3.449 3.436-3.449h3.121v3.108c0 2.466 0.984 3.449 3.436 3.449h3.121z"></path>
<path fill="#f2c938" style="fill: var(--color1, #f2c938)" opacity="0.6" d="M22.295 15.869v3.108c0 2.466-0.984 3.449-3.449 3.449h-6.229c-2.452 0-3.436-0.984-3.436-3.449v-6.229c0-2.452 0.984-3.436 3.436-3.436h3.121v3.108c0 2.466 0.984 3.449 3.436 3.449h3.121z"></path>
<path fill="#f2c938" style="fill: var(--color1, #f2c938)" d="M28.852 6.19v6.229c0 2.466-0.984 3.449-3.449 3.449h-6.23c-2.452 0-3.436-0.984-3.436-3.449v-6.229c0-2.452 0.984-3.436 3.436-3.436h6.23c2.466 0 3.449 0.984 3.449 3.436z"></path>
</symbol>
<symbol id="icon-instagram" viewBox="0 0 32 32">
<path fill="#f2c938" style="fill: var(--color1, #f2c938)" d="M31.244 15.822c0 8.605-6.976 15.581-15.581 15.581s-15.581-6.976-15.581-15.581c0-8.605 6.976-15.581 15.581-15.581s15.581 6.976 15.581 15.581z"></path>
<path fill="#fff" style="fill: var(--color2, #fff)" d="M12.97 7.559c0.831-0.038 1.096-0.047 3.212-0.047s2.381 0.009 3.211 0.047 1.397 0.169 1.892 0.362c0.54 0.207 1 0.513 1.379 0.898l0 0.001c0.397 0.389 0.703 0.859 0.899 1.379 0.192 0.496 0.324 1.064 0.362 1.892 0.038 0.832 0.047 1.096 0.047 3.212s-0.009 2.381-0.047 3.212c-0.038 0.828-0.169 1.395-0.362 1.891-0.207 0.54-0.512 1-0.898 1.379l-0.001 0.001c-0.38 0.386-0.84 0.692-1.354 0.89l-0.026 0.009c-0.495 0.192-1.062 0.324-1.891 0.362-0.831 0.038-1.096 0.047-3.212 0.047s-2.381-0.009-3.212-0.047c-0.828-0.038-1.395-0.169-1.891-0.362-0.54-0.207-1-0.512-1.379-0.897l-0.001-0.001c-0.386-0.38-0.692-0.84-0.89-1.354l-0.009-0.026c-0.192-0.496-0.324-1.064-0.362-1.892-0.038-0.832-0.047-1.096-0.047-3.212s0.009-2.381 0.047-3.211c0.038-0.83 0.169-1.397 0.362-1.892 0.207-0.54 0.512-1 0.898-1.379l0.001-0.001c0.379-0.386 0.839-0.692 1.353-0.89l0.026-0.009c0.496-0.192 1.064-0.324 1.892-0.362zM19.331 8.961c-0.822-0.038-1.068-0.045-3.148-0.045s-2.327 0.008-3.148 0.045c-0.76 0.035-1.172 0.162-1.447 0.268-0.351 0.132-0.651 0.33-0.895 0.582l-0.001 0.001c-0.252 0.245-0.451 0.545-0.577 0.879l-0.005 0.017c-0.106 0.275-0.233 0.687-0.268 1.447-0.038 0.822-0.045 1.068-0.045 3.148s0.008 2.327 0.045 3.148c0.035 0.76 0.162 1.172 0.268 1.447 0.125 0.339 0.324 0.645 0.583 0.896 0.251 0.259 0.558 0.457 0.896 0.583 0.275 0.106 0.687 0.233 1.447 0.268 0.822 0.038 1.067 0.045 3.148 0.045s2.327-0.008 3.148-0.045c0.76-0.035 1.172-0.162 1.447-0.268 0.351-0.132 0.651-0.33 0.895-0.582l0.001-0.001c0.259-0.251 0.457-0.558 0.583-0.896 0.106-0.275 0.233-0.687 0.268-1.447 0.038-0.822 0.045-1.068 0.045-3.148s-0.008-2.327-0.045-3.148c-0.035-0.76-0.162-1.172-0.268-1.447-0.132-0.351-0.33-0.651-0.582-0.895l-0.001-0.001c-0.245-0.252-0.545-0.451-0.879-0.577l-0.017-0.005c-0.275-0.106-0.687-0.233-1.447-0.268zM15.188 17.704c0.296 0.127 0.641 0.202 1.003 0.202 1.435 0 2.598-1.163 2.598-2.598 0-0.721-0.294-1.373-0.768-1.844l-0-0c-0.47-0.47-1.12-0.761-1.838-0.761-1.436 0-2.6 1.164-2.6 2.6 0 1.077 0.655 2 1.587 2.395l0.017 0.006zM13.351 12.472c0.728-0.746 1.744-1.209 2.867-1.209 2.212 0 4.005 1.793 4.005 4.005 0 1.124-0.463 2.139-1.208 2.866l-0.001 0.001c-0.725 0.725-1.726 1.173-2.832 1.173-2.212 0-4.005-1.793-4.005-4.005 0-1.106 0.448-2.107 1.173-2.832v0zM21.075 11.895c0.181-0.173 0.294-0.416 0.294-0.686 0-0.523-0.424-0.948-0.948-0.948-0.136 0-0.266 0.029-0.383 0.080l0.006-0.002c-0.333 0.151-0.56 0.481-0.56 0.864 0 0.522 0.424 0.946 0.946 0.946 0.249 0 0.476-0.097 0.645-0.254l-0.001 0.001z"></path>
</symbol>
<symbol id="icon-security" viewBox="0 0 31 32">
<path fill="#f2c938" style="fill: var(--color1, #f2c938)" opacity="0.4" d="M24.037 7.567l-15.397 15.397c-0.239 0.238-0.569 0.385-0.933 0.385-0.448 0-0.845-0.223-1.084-0.565l-0.003-0.004c-1.626-2.374-2.584-5.18-2.584-8.066v-5.757c0-1.075 0.813-2.295 1.81-2.702l7.305-2.99c0.76-0.323 1.643-0.511 2.57-0.511s1.811 0.188 2.615 0.528l-0.044-0.017 5.298 2.164c0.879 0.354 1.102 1.482 0.446 2.138z"></path>
<path fill="#f2c938" style="fill: var(--color1, #f2c938)" d="M25.272 9.367c0.852-0.721 2.151-0.105 2.151 1.010v4.341c0 6.413-4.656 12.42-11.016 14.177-0.203 0.056-0.435 0.089-0.675 0.089s-0.473-0.032-0.694-0.093l0.018 0.004c-1.945-0.556-3.638-1.433-5.108-2.582l0.033 0.025c-0.316-0.243-0.518-0.622-0.518-1.048 0-0.358 0.143-0.682 0.374-0.92l-0 0c2.859-2.925 11.226-11.449 15.436-15.003z"></path>
</symbol>
<symbol id="icon-star" viewBox="0 0 32 32">
<path fill="#f2c938" style="fill: var(--color1, #f2c938)" d="M15.172 1.86c0.096-0.286 0.362-0.489 0.676-0.489s0.579 0.203 0.674 0.484l0.001 0.005 3.182 9.788c0.096 0.287 0.362 0.49 0.676 0.491h10.29c0.001 0 0.002 0 0.003 0 0.393 0 0.711 0.318 0.711 0.711 0 0.236-0.115 0.445-0.292 0.575l-0.002 0.001-8.327 6.048c-0.179 0.131-0.294 0.34-0.294 0.576 0 0.079 0.013 0.154 0.036 0.225l-0.001-0.005 3.182 9.785c0.023 0.066 0.036 0.143 0.036 0.222 0 0.393-0.318 0.711-0.711 0.711-0.158 0-0.304-0.051-0.422-0.138l0.002 0.001-8.327-6.048c-0.116-0.085-0.261-0.136-0.418-0.136s-0.302 0.051-0.42 0.137l0.002-0.001-8.324 6.048c-0.116 0.086-0.262 0.137-0.42 0.137-0.393 0-0.711-0.318-0.711-0.711 0-0.080 0.013-0.156 0.037-0.227l-0.001 0.005 3.179-9.785c0.023-0.066 0.036-0.143 0.036-0.222 0-0.235-0.114-0.443-0.29-0.573l-0.002-0.001-8.327-6.048c-0.179-0.131-0.294-0.34-0.294-0.576 0-0.393 0.318-0.711 0.711-0.711 0.001 0 0.002 0 0.003 0h10.29c0.314-0 0.58-0.204 0.674-0.486l0.001-0.005 3.182-9.788z"></path>
</symbol>
<symbol id="icon-symbol-defs" viewBox="0 0 32 32">
<path fill="#f2c938" style="fill: var(--color1, #f2c938)" d="M15.172 1.86c0.096-0.286 0.362-0.489 0.676-0.489s0.579 0.203 0.674 0.484l0.001 0.005 3.182 9.788c0.096 0.287 0.362 0.49 0.676 0.491h10.29c0.001 0 0.002 0 0.003 0 0.393 0 0.711 0.318 0.711 0.711 0 0.236-0.115 0.445-0.292 0.575l-0.002 0.001-8.327 6.048c-0.179 0.131-0.294 0.34-0.294 0.576 0 0.079 0.013 0.154 0.036 0.225l-0.001-0.005 3.182 9.785c0.023 0.066 0.036 0.143 0.036 0.222 0 0.393-0.318 0.711-0.711 0.711-0.158 0-0.304-0.051-0.422-0.138l0.002 0.001-8.327-6.048c-0.116-0.085-0.261-0.136-0.418-0.136s-0.302 0.051-0.42 0.137l0.002-0.001-8.324 6.048c-0.116 0.086-0.262 0.137-0.42 0.137-0.393 0-0.711-0.318-0.711-0.711 0-0.080 0.013-0.156 0.037-0.227l-0.001 0.005 3.179-9.785c0.023-0.066 0.036-0.143 0.036-0.222 0-0.235-0.114-0.443-0.29-0.573l-0.002-0.001-8.327-6.048c-0.179-0.131-0.294-0.34-0.294-0.576 0-0.393 0.318-0.711 0.711-0.711 0.001 0 0.002 0 0.003 0h10.29c0.314-0 0.58-0.204 0.674-0.486l0.001-0.005 3.182-9.788z"></path>
</symbol>
<symbol id="icon-tickcircle" viewBox="0 0 32 32">
<path fill="none" stroke="#f2c938" style="stroke: var(--color1, #f2c938)" stroke-linejoin="round" stroke-linecap="round" stroke-miterlimit="4" stroke-width="2.8858" d="M15.484 28.684c7.055 0 12.825-5.77 12.825-12.825s-5.77-12.825-12.825-12.825-12.825 5.772-12.825 12.825c0 7.055 5.772 12.825 12.825 12.825z"></path>
<path fill="none" stroke="#f2c938" style="stroke: var(--color1, #f2c938)" stroke-linejoin="round" stroke-linecap="round" stroke-miterlimit="4" stroke-width="2.8858" d="M10.033 15.859l3.629 3.632 7.273-7.258"></path>
</symbol>
<symbol id="icon-Vector" viewBox="0 0 25 32">
<path fill="#fff" style="fill: var(--color2, #fff)" d="M12.325 0.533c-6.7 0.009-12.13 5.438-12.139 12.138v0.001c0 0.005 0 0.011 0 0.018 0 2.744 0.919 5.272 2.467 7.295l-0.021-0.029s0.331 0.436 0.385 0.499l9.309 10.98 9.315-10.985c0.048-0.059 0.38-0.493 0.38-0.493l0.001-0.003c1.526-1.993 2.445-4.522 2.445-7.265 0-0.006 0-0.012 0-0.018v0.001c-0.008-6.703-5.441-12.134-12.143-12.14h-0.001zM12.325 17.088c-2.439 0-4.415-1.977-4.415-4.415s1.977-4.415 4.415-4.415v0c2.439 0 4.415 1.977 4.415 4.415s-1.977 4.415-4.415 4.415v0z"></path>
</symbol>
<symbol id="icon-bxs_phone-call1" viewBox="0 0 32 32">
<path fill="#f2c938" style="fill: var(--color1, #f2c938)" d="M26.667 14.665h2.667c0-6.84-5.164-11.999-12.013-11.999v2.667c5.416 0 9.347 3.924 9.347 9.332z"></path>
<path fill="#f2c938" style="fill: var(--color1, #f2c938)" d="M17.333 10.667c2.804 0 4 1.196 4 4h2.667c0-4.3-2.367-6.667-6.667-6.667v2.667zM21.896 17.925c-0.256-0.233-0.593-0.357-0.939-0.346s-0.674 0.155-0.916 0.404l-3.191 3.281c-0.768-0.147-2.312-0.628-3.901-2.213-1.589-1.591-2.071-3.139-2.213-3.901l3.279-3.192c0.248-0.241 0.393-0.57 0.404-0.916s-0.114-0.683-0.347-0.939l-4.927-5.417c-0.233-0.257-0.557-0.413-0.904-0.434s-0.687 0.093-0.951 0.318l-2.893 2.481c-0.231 0.231-0.368 0.539-0.387 0.865-0.020 0.333-0.401 8.229 5.721 14.355 5.341 5.34 12.032 5.731 13.875 5.731 0.269 0 0.435-0.008 0.479-0.011 0.326-0.018 0.634-0.156 0.864-0.388l2.48-2.895c0.226-0.263 0.34-0.604 0.319-0.951s-0.177-0.671-0.434-0.904l-5.419-4.928z"></path>
</symbol>
<symbol id="icon-eye1" viewBox="0 0 32 32">
<path fill="none" stroke="#fff" style="stroke: var(--color2, #fff)" stroke-linejoin="round" stroke-linecap="round" stroke-miterlimit="4" stroke-width="1.4545" d="M20.773 16c0 2.64-2.133 4.773-4.773 4.773s-4.773-2.133-4.773-4.773c0-2.64 2.133-4.773 4.773-4.773s4.773 2.133 4.773 4.773z"></path>
<path fill="none" stroke="#fff" style="stroke: var(--color2, #fff)" stroke-linejoin="round" stroke-linecap="round" stroke-miterlimit="4" stroke-width="1.4545" d="M16 27.027c4.707 0 9.093-2.773 12.147-7.573 1.2-1.88 1.2-5.040 0-6.92-3.053-4.8-7.44-7.573-12.147-7.573s-9.093 2.773-12.147 7.573c-1.2 1.88-1.2 5.040 0 6.92 3.053 4.8 7.44 7.573 12.147 7.573z"></path>
</symbol>
<symbol id="icon-Group-1000001750" viewBox="0 0 32 32">
<path fill="#f2c938" style="fill: var(--color1, #f2c938)" d="M31.245 15.822c0 8.605-6.976 15.581-15.581 15.581s-15.581-6.976-15.581-15.581c0-8.605 6.976-15.581 15.581-15.581s15.581 6.976 15.581 15.581z"></path>
<path fill="#fff" style="fill: var(--color2, #fff)" d="M12.971 7.559c0.831-0.038 1.096-0.047 3.212-0.047s2.381 0.009 3.211 0.047c0.83 0.038 1.397 0.17 1.892 0.362 0.519 0.196 0.99 0.503 1.38 0.899 0.397 0.389 0.703 0.859 0.898 1.379 0.193 0.496 0.324 1.062 0.363 1.891 0.038 0.832 0.047 1.097 0.047 3.213s-0.009 2.381-0.047 3.212c-0.038 0.829-0.17 1.395-0.363 1.891-0.195 0.52-0.502 0.991-0.898 1.38-0.389 0.397-0.861 0.703-1.38 0.898-0.496 0.193-1.062 0.324-1.891 0.363-0.832 0.038-1.096 0.047-3.213 0.047s-2.381-0.009-3.212-0.047c-0.829-0.038-1.395-0.17-1.891-0.363-0.52-0.195-0.991-0.502-1.38-0.898-0.396-0.389-0.703-0.86-0.899-1.38-0.192-0.496-0.324-1.062-0.362-1.891-0.038-0.832-0.047-1.097-0.047-3.213s0.009-2.381 0.047-3.211c0.038-0.83 0.17-1.397 0.362-1.892 0.196-0.52 0.503-0.991 0.899-1.38 0.389-0.396 0.859-0.703 1.379-0.899 0.496-0.192 1.062-0.324 1.891-0.362h0.001zM19.331 8.961c-0.822-0.038-1.068-0.045-3.148-0.045s-2.327 0.008-3.148 0.045c-0.76 0.035-1.172 0.161-1.447 0.268-0.363 0.142-0.623 0.309-0.896 0.582-0.259 0.251-0.457 0.558-0.582 0.896-0.107 0.275-0.234 0.687-0.268 1.447-0.038 0.822-0.045 1.068-0.045 3.148s0.008 2.327 0.045 3.148c0.035 0.76 0.162 1.172 0.268 1.447 0.125 0.338 0.324 0.645 0.582 0.896 0.251 0.259 0.558 0.458 0.896 0.582 0.275 0.107 0.687 0.234 1.447 0.268 0.822 0.038 1.067 0.045 3.148 0.045s2.327-0.008 3.148-0.045c0.76-0.035 1.172-0.162 1.447-0.268 0.363-0.142 0.623-0.31 0.896-0.582 0.258-0.251 0.457-0.558 0.582-0.896 0.107-0.275 0.234-0.687 0.268-1.447 0.038-0.822 0.045-1.068 0.045-3.148s-0.008-2.327-0.045-3.148c-0.035-0.76-0.161-1.172-0.268-1.447-0.142-0.363-0.309-0.623-0.582-0.896-0.251-0.258-0.558-0.457-0.896-0.582-0.275-0.107-0.687-0.234-1.447-0.268zM15.187 17.704c0.556 0.231 1.175 0.263 1.751 0.088s1.074-0.543 1.408-1.044c0.334-0.5 0.485-1.102 0.425-1.701s-0.325-1.159-0.752-1.584c-0.272-0.272-0.6-0.48-0.962-0.609s-0.748-0.177-1.13-0.139c-0.382 0.038-0.752 0.16-1.081 0.357s-0.611 0.466-0.825 0.785c-0.213 0.32-0.354 0.682-0.41 1.063s-0.028 0.768 0.084 1.136c0.111 0.368 0.303 0.706 0.561 0.991s0.576 0.509 0.931 0.656zM13.351 12.471c0.372-0.372 0.813-0.667 1.299-0.868s1.007-0.305 1.532-0.305c0.526 0 1.047 0.104 1.532 0.305s0.927 0.496 1.299 0.868c0.372 0.372 0.667 0.813 0.868 1.299s0.305 1.007 0.305 1.532c0 0.526-0.104 1.047-0.305 1.532s-0.496 0.927-0.868 1.299c-0.751 0.751-1.77 1.173-2.832 1.173s-2.081-0.422-2.832-1.173c-0.751-0.751-1.173-1.77-1.173-2.832s0.422-2.081 1.173-2.832zM21.075 11.895c0.092-0.087 0.166-0.192 0.217-0.307s0.078-0.241 0.080-0.368c0.002-0.127-0.022-0.252-0.069-0.37s-0.118-0.224-0.208-0.314c-0.090-0.090-0.196-0.16-0.314-0.208s-0.243-0.071-0.37-0.069c-0.127 0.002-0.252 0.029-0.368 0.080s-0.221 0.125-0.307 0.217c-0.169 0.179-0.262 0.417-0.258 0.664s0.103 0.482 0.277 0.656 0.409 0.274 0.656 0.277c0.246 0.004 0.484-0.089 0.664-0.258z"></path>
</symbol>
<symbol id="icon-Group-1000003214" viewBox="0 0 64 32">
<path fill="#fff" style="fill: var(--color2, #fff)" d="M16 0h32c8.837 0 16 7.163 16 16s-7.163 16-16 16h-32c-8.837 0-16-7.163-16-16s7.163-16 16-16z"></path>
<path fill="#f2c938" style="fill: var(--color1, #f2c938)" d="M22.4 15.771c0-0.545 0.334-0.996 0.768-1.067l0.121-0.010 15.626 0.001-5.645-6.813c-0.348-0.42-0.349-1.102-0.003-1.523 0.315-0.383 0.809-0.419 1.157-0.107l0.1 0.104 7.17 8.652c0.046 0.055 0.086 0.115 0.12 0.178 0.010 0.019 0.019 0.038 0.028 0.058 0.008 0.017 0.016 0.035 0.023 0.053 0.010 0.026 0.020 0.053 0.029 0.080 0.007 0.021 0.013 0.042 0.019 0.062 0.007 0.026 0.013 0.053 0.018 0.081 0.004 0.019 0.007 0.038 0.010 0.057 0.004 0.028 0.007 0.057 0.010 0.086 0.002 0.022 0.003 0.044 0.004 0.066 0 0.013 0 0.027 0 0.042l-0 0.042c-0.001 0.021-0.002 0.042-0.004 0.063l0.004-0.105c0 0.068-0.005 0.134-0.015 0.199-0.002 0.015-0.005 0.031-0.008 0.047-0.006 0.032-0.014 0.064-0.022 0.094-0.004 0.015-0.009 0.031-0.014 0.048-0.010 0.032-0.022 0.063-0.034 0.093-0.006 0.014-0.012 0.029-0.019 0.044-0.011 0.024-0.022 0.047-0.035 0.069-0.008 0.016-0.018 0.032-0.028 0.048l-0.008 0.012c-0.024 0.038-0.050 0.074-0.078 0.108l-0.001 0.001-7.17 8.653c-0.348 0.42-0.911 0.418-1.257-0.003-0.315-0.383-0.343-0.982-0.084-1.403l0.086-0.121 5.643-6.811-15.623-0.001c-0.491 0-0.889-0.482-0.889-1.077z"></path>
</symbol>
<symbol id="icon-i3square1" viewBox="0 0 31 32">
<path fill="#f2c938" style="fill: var(--color1, #f2c938)" opacity="0.4" d="M15.738 22.426v3.121c0 2.452-0.984 3.436-3.449 3.436h-6.229c-2.452 0-3.436-0.984-3.436-3.436v-6.23c0-2.466 0.984-3.449 3.436-3.449h3.121v3.108c0 2.466 0.984 3.449 3.436 3.449h3.121z"></path>
<path fill="#f2c938" style="fill: var(--color1, #f2c938)" opacity="0.6" d="M22.295 15.869v3.108c0 2.466-0.984 3.449-3.449 3.449h-6.229c-2.452 0-3.436-0.984-3.436-3.449v-6.229c0-2.452 0.984-3.436 3.436-3.436h3.121v3.108c0 2.466 0.984 3.449 3.436 3.449h3.121z"></path>
<path fill="#f2c938" style="fill: var(--color1, #f2c938)" d="M28.852 6.19v6.229c0 2.466-0.984 3.449-3.449 3.449h-6.23c-2.452 0-3.436-0.984-3.436-3.449v-6.229c0-2.452 0.984-3.436 3.436-3.436h6.23c2.466 0 3.449 0.984 3.449 3.436z"></path>
</symbol>
<symbol id="icon-ri_facebook-fill" viewBox="0 0 32 32">
<path fill="#fff" style="fill: var(--color2, #fff)" d="M18.455 17.17h3.175l1.27-5.079h-4.444v-2.54c0-1.308 0-2.54 2.54-2.54h1.905v-4.267c-0.414-0.055-1.977-0.178-3.628-0.178-3.448 0-5.896 2.104-5.896 5.968v3.556h-3.81v5.079h3.81v10.794h5.079v-10.794z"></path>
</symbol>
<symbol id="icon-security1" viewBox="0 0 31 32">
<path fill="#f2c938" style="fill: var(--color1, #f2c938)" opacity="0.4" d="M24.037 7.567l-15.397 15.397c-0.577 0.577-1.548 0.498-2.020-0.184-1.626-2.374-2.584-5.18-2.584-8.066v-5.757c0-1.075 0.813-2.295 1.81-2.702l7.305-2.99c0.815-0.338 1.688-0.511 2.57-0.511s1.756 0.174 2.57 0.511l5.298 2.164c0.879 0.354 1.102 1.482 0.446 2.138z"></path>
<path fill="#f2c938" style="fill: var(--color1, #f2c938)" d="M25.272 9.367c0.852-0.721 2.151-0.105 2.151 1.010v4.341c0 6.413-4.656 12.42-11.016 14.177-0.433 0.118-0.905 0.118-1.351 0-1.841-0.517-3.564-1.385-5.075-2.557-0.63-0.485-0.695-1.403-0.144-1.967 2.859-2.925 11.226-11.449 15.436-15.003z"></path>
</symbol>
<symbol id="icon-Star-5" viewBox="0 0 32 32">
<path fill="#f2c938" style="fill: var(--color1, #f2c938)" d="M15.17 1.859c0.213-0.655 1.14-0.655 1.353 0l3.18 9.788c0.095 0.293 0.368 0.491 0.676 0.491h10.291c0.689 0 0.975 0.881 0.418 1.286l-8.326 6.049c-0.249 0.181-0.354 0.502-0.258 0.795l3.18 9.788c0.213 0.655-0.537 1.2-1.094 0.795l-8.326-6.049c-0.249-0.181-0.587-0.181-0.836 0l-8.326 6.049c-0.557 0.405-1.307-0.14-1.094-0.795l3.18-9.788c0.095-0.293-0.009-0.614-0.258-0.795l-8.326-6.049c-0.557-0.405-0.271-1.286 0.418-1.286h10.291c0.308 0 0.581-0.198 0.676-0.491l3.18-9.788z"></path>
</symbol>
<symbol id="icon-tickcircle1" viewBox="0 0 32 32">
<path fill="none" stroke="#f2c938" style="stroke: var(--color1, #f2c938)" stroke-linejoin="round" stroke-linecap="round" stroke-miterlimit="4" stroke-width="2.8856" d="M15.484 28.684c7.054 0 12.825-5.771 12.825-12.825s-5.771-12.825-12.825-12.825c-7.054 0-12.825 5.771-12.825 12.825s5.771 12.825 12.825 12.825z"></path>
<path fill="none" stroke="#f2c938" style="stroke: var(--color1, #f2c938)" stroke-linejoin="round" stroke-linecap="round" stroke-miterlimit="4" stroke-width="2.8856" d="M10.033 15.86l3.629 3.629 7.272-7.259"></path>
</symbol>
<symbol id="icon-Vector1" viewBox="0 0 25 32">
<path fill="#fff" style="fill: var(--color2, #fff)" d="M12.326 0.533c-3.219 0.004-6.304 1.284-8.58 3.56s-3.556 5.362-3.56 8.58c-0.004 2.63 0.855 5.189 2.446 7.284 0 0 0.331 0.436 0.385 0.499l9.31 10.979 9.314-10.985c0.049-0.059 0.381-0.493 0.381-0.493l0.001-0.003c1.59-2.094 2.448-4.652 2.445-7.281-0.004-3.219-1.284-6.304-3.56-8.58s-5.362-3.556-8.58-3.56v0zM12.326 17.088c-0.873 0-1.727-0.259-2.453-0.744s-1.292-1.175-1.626-1.981c-0.334-0.807-0.422-1.694-0.251-2.551s0.591-1.643 1.208-2.26c0.617-0.617 1.404-1.038 2.26-1.208s1.744-0.083 2.551 0.251c0.807 0.334 1.496 0.9 1.981 1.626s0.744 1.58 0.744 2.453c-0.001 1.17-0.467 2.292-1.295 3.12s-1.95 1.293-3.12 1.295v0z"></path>
</symbol>
</defs>
</svg>
